<svg width="29" height="29" viewBox="0 0 29 29" fill="none" xmlns="http://www.w3.org/2000/svg">
<path d="M5.16669 5.16667H7.10513C7.85509 5.16667 8.23006 5.16667 8.50132 5.37847C8.77258 5.59026 8.86353 5.95404 9.04542 6.6816L9.26744 7.56967C9.44568 8.28265 9.5348 8.63914 9.71393 8.917C9.95844 9.29628 10.324 9.58173 10.7513 9.72695C11.0643 9.83334 11.4318 9.83334 12.1667 9.83334V9.83334" stroke="white" stroke-width="2" stroke-linecap="round"/>
<path d="M21.5 20.3333H9.30939C8.93148 20.3333 8.74253 20.3333 8.60359 20.2922C8.16676 20.1629 7.87254 19.7547 7.888 19.2994C7.89292 19.1546 7.95267 18.9753 8.07218 18.6168V18.6168C8.20477 18.219 8.27106 18.0201 8.36435 17.854C8.65263 17.3407 9.15243 16.9805 9.73059 16.8693C9.91767 16.8333 10.1273 16.8333 10.5466 16.8333H16.8333" stroke="white" stroke-width="2" stroke-linecap="round" stroke-linejoin="round"/>
<path d="M19.0973 16.8333H11.5276C10.5499 16.8333 9.71555 16.1265 9.55482 15.1621L8.95779 11.5799C8.8054 10.6656 9.51047 9.83333 10.4374 9.83333H22.2153C22.9587 9.83333 23.4422 10.6156 23.1097 11.2805L20.8861 15.7278C20.5474 16.4053 19.8548 16.8333 19.0973 16.8333Z" stroke="white" stroke-width="2" stroke-linecap="round"/>
<circle cx="20.3334" cy="23.8333" r="1.16667" fill="white"/>
<circle cx="11" cy="23.8333" r="1.16667" fill="white"/>
</svg>
