<svg xmlns="http://www.w3.org/2000/svg" width="494" height="245" viewBox="0 0 494 245" fill="none">
  <path fill-rule="evenodd" clip-rule="evenodd" d="M230.601 0.760918C218.167 2.1528 203.091 5.67734 199.312 8.07471C197.552 9.19228 194.503 12.6731 192.536 15.8091L188.96 21.5132L178.877 22.0619C166.226 22.7514 160.867 25.0111 155.416 31.9523C152.126 36.1408 151.13 39.0452 151.13 44.4452C151.13 53.9407 155.922 60.0281 166.268 63.6754C172.996 66.0471 175.8 66.3438 191.499 66.3438C206.516 66.3438 210.49 65.9617 218.054 63.7938C230.471 60.233 240.277 53.0131 240.277 47.4317C240.277 39.6034 225.227 33.7392 213.928 37.1655C207.883 38.9993 207.067 42.3915 211.562 47.0069C215.642 51.1954 215.831 51.934 212.817 51.934C208.125 51.934 203.273 47.1254 203.273 42.4769C203.273 33.4371 215.698 30.1463 231.501 35.0019C244.918 39.1231 248.531 46.3835 241.539 55.1693C236.913 60.9823 228.214 64.8089 212.768 67.8264C191.001 72.08 168.115 70.2857 156.596 63.4234C154.516 62.1831 152.812 61.6505 152.812 62.2386C152.812 64.8815 141.69 73.5744 135.241 75.9728C126.2 79.3351 114.68 79.5667 109.478 76.4916C101.826 71.9669 101.631 61.9355 109.145 59.3834C114.853 57.445 123.802 58.1345 126.671 60.7347C129.511 63.3071 127.159 64.9018 123.734 62.7286C120.426 60.629 113.17 61.3313 111.198 63.9422C106.203 70.5558 106.978 72.6767 115.005 74.3578C127.564 76.9879 143.884 70.6881 147.68 61.7434C151.207 53.4316 144.619 44.38 131.472 39.4764C124.656 36.935 121.514 36.4578 111.602 36.4664C96.7244 36.4781 85.8148 39.707 78.3466 46.3067C72.7521 51.2498 71.4452 51.4761 58.9864 49.6508C51.4357 48.545 49.8714 48.6742 41.6177 51.0812C30.8695 54.2172 22.4039 58.5422 19.1121 62.5802C17.8035 64.1866 15.9802 69.308 15.0618 73.9608C14.1417 78.6146 11.1713 86.2497 8.45983 90.927C1.55341 102.839 0.64343 107.313 3.74678 114.086C6.50026 120.097 13.4588 125.226 22.4341 127.861C29.4701 129.926 29.7846 132.647 23.255 134.928C7.97036 140.266 1.545 147.158 0.199372 159.663C-1.45575 175.052 7.20504 189.025 25.7814 200.938C35.0258 206.865 39.6043 208.943 46.8438 210.493C57.01 212.671 71.9818 212.958 79.2767 211.117C83.8468 209.963 83.8956 209.861 81.3793 206.773C77.4534 201.955 78.1128 196.275 83.0764 192.145C93.2847 183.651 112.435 182.394 118.488 189.821C121.425 193.426 120.281 199.032 116.418 199.972C112.643 200.891 111.658 199.492 114.066 196.637C116.996 193.161 115.334 190.907 108.507 189.096C92.2385 184.783 76.8798 197.498 87.2243 206.717C89.0813 208.371 94.0399 210.783 98.245 212.074C108.046 215.084 114.541 214.329 122.788 209.219L128.996 205.371L141.657 210.745C148.62 213.701 156.699 216.451 159.607 216.856C173.217 218.753 190.077 213.674 196.794 205.656C202.531 198.805 200.243 190.033 191.576 185.642C182.414 181.002 164.416 182.107 156.908 187.771C151.207 192.069 152.141 195.03 159.96 197.454C163.43 198.53 166.268 199.852 166.268 200.39C166.268 202.296 159.732 201.334 154.807 198.704C144.906 193.418 146.45 187.189 158.798 182.597C169.635 178.567 183.304 178.39 192.096 182.169C207.764 188.901 209.067 204.097 194.757 213.178L188.683 217.032L193.034 220.928C201.189 228.228 216.076 233.369 229.11 233.385C231.756 233.388 245.108 230.99 258.78 228.054C282.951 222.865 295.376 221.572 300.661 223.695C301.954 224.216 306.117 227.902 309.912 231.886C318.441 240.845 327.59 244.281 344.563 244.902C354.136 245.253 357.485 244.797 371.476 241.24C386.749 237.357 388.273 237.182 405.958 237.278C418.721 237.347 426.781 237.928 431.942 239.148L439.425 240.917L435.58 238.322C431.365 235.473 415.143 229.758 408.467 228.768C406.148 228.425 395.551 227.865 384.919 227.526C354.497 226.554 347.647 225.106 343.472 218.765C341.223 215.349 341.246 214.401 343.709 209.625C346.446 204.314 346.441 204.284 342.246 201.497C339.929 199.959 336.491 196.539 334.607 193.898C328.599 185.476 330.661 179.427 341.051 174.983C351.411 170.554 368.907 172.706 374.073 179.045C377.407 183.135 377.274 187.493 373.817 187.493C371.827 187.493 371.37 186.838 372.09 185.021C375.627 176.076 345.645 172.537 338.686 181.077C328.502 193.575 354.026 209.027 385.015 209.122C399.556 209.166 411.475 206.521 421.192 201.093C433.299 194.33 436.101 188.059 431.827 177.288C429.161 170.565 431.235 169.299 444.417 169.603C457.468 169.903 465.177 167.646 476.874 160.103C488.904 152.343 492.929 145.407 493.882 130.785C495.401 107.497 482.231 93.4706 453.384 87.6576C446.713 86.3137 439.087 84.5867 436.434 83.8192C431.613 82.4252 431.612 82.4209 432.957 75.4519C436.323 58.0117 433.003 51.9703 412.43 38.0909C394.848 26.2311 383.543 22.7172 361.382 22.2209C345.468 21.8655 345.181 21.9039 332.404 26.0988C325.307 28.4299 319.084 30.0727 318.576 29.7492C318.066 29.4269 317.651 27.7543 317.651 26.0326C317.651 18.2811 304.77 9.21789 285.692 3.54682C275.984 0.660583 272.779 0.266714 257.098 0.0340215C247.384 -0.110077 235.46 0.216546 230.601 0.760918ZM150.876 111.441C143.073 116.93 137.208 123.175 138.557 124.56C139.214 125.235 141.732 125.423 144.664 125.014L149.653 124.318L144.348 130.284C139.956 135.222 139.482 136.355 141.591 136.87C142.992 137.21 145.661 136.973 147.522 136.34C150.486 135.334 150.973 135.546 151.439 138.044C152.378 143.079 156.176 142.306 156.176 137.08C156.176 133.28 157.118 131.816 161.126 129.379L166.076 126.369L168.339 129.886L170.599 133.403L183.569 133.497C196.583 133.59 197.978 133.325 194.864 131.349C193.746 130.639 194.107 128.793 195.946 125.824C199.098 120.731 197.318 118.113 190.703 118.113C186.064 118.113 176.1 120.173 173.837 121.6C172.199 122.633 176.969 122.329 188.602 120.658L193.273 119.987L190.239 125.187C187.258 130.299 187.071 130.393 179.376 130.71L171.546 131.032L170.448 125.907C168.911 118.732 167.953 116.917 166.095 117.646C165.208 117.994 164.934 119.809 165.488 121.679C166.35 124.596 165.762 125.42 161.335 127.498L156.176 129.918V125.654C156.176 122.462 157.034 121.098 159.587 120.231C163.18 119.011 162.425 116.524 158.734 117.423C157.552 117.71 155.737 117.407 154.699 116.748C153.305 115.864 152.812 116.028 152.812 117.381C152.812 119.029 143.884 123.436 140.521 123.445C136.826 123.456 146.232 116.602 154.03 113.603C163.017 110.147 165.523 107.439 159.735 107.439C157.992 107.439 154.006 109.24 150.876 111.441ZM285.277 111.975C283.911 113.295 280.382 116.013 277.435 118.012C271.356 122.138 271.63 123.665 278.959 126.494L284.113 128.483L276.132 134.116C269.269 138.961 268.731 139.644 272.297 138.994C280.909 137.423 303.338 118.21 299.445 115.739C298.043 114.849 295.953 114.847 291.416 115.73L285.284 116.925L289.028 114.396C291.088 113.004 292.271 111.351 291.657 110.72C289.943 108.96 288.002 109.342 285.277 111.975ZM304.195 111.645C304.195 112.266 302.908 112.776 301.335 112.776C298.98 112.776 298.869 113.011 300.704 114.11C302.487 115.177 303.088 115.176 303.707 114.103C304.134 113.366 305.174 113.034 306.02 113.366C306.866 113.698 307.559 113.489 307.559 112.901C307.559 112.314 306.802 111.537 305.877 111.174C304.952 110.812 304.195 111.024 304.195 111.645ZM348.102 122.916C334.713 132.621 332.941 133.529 328.164 133.136C325.284 132.898 325.518 134.643 328.584 136.258C330.606 137.324 331.692 137.3 334.051 136.142C343.226 131.637 366.401 112.776 362.76 112.776C362.393 112.776 355.798 117.339 348.102 122.916ZM224.513 116.399C218.14 117.361 216.832 117.894 218.626 118.799C223.102 121.055 241.853 118.459 239.384 115.924C238.185 114.693 235.203 114.788 224.513 116.399ZM283.265 120.426C276.974 122.53 276.801 122.72 279.869 124.145C284.348 126.224 286.967 125.62 290.982 121.582C295.107 117.436 293.102 117.135 283.265 120.426ZM223.151 123.165C222.737 125.453 221.38 126.349 217.128 127.144C210.84 128.318 210.812 130.476 217.087 130.208C220.307 130.071 221.894 130.843 223.913 133.528C226.009 136.317 228.089 137.274 234.155 138.244C244.435 139.887 252.526 139.832 251.633 138.126C251.239 137.374 247.545 136.672 243.16 136.518C231.131 136.092 226.819 134.692 226.828 131.215C226.833 128.735 228 127.949 233.993 126.385C237.931 125.357 242.471 124.517 244.08 124.517C246.977 124.517 247.931 123.326 246.011 122.107C245.463 121.76 241.49 122.155 237.181 122.984C227.398 124.869 226.821 124.868 226.821 122.979C226.821 120.059 223.684 120.218 223.151 123.165ZM322.697 121.199C322.697 121.849 323.858 122.382 325.274 122.382C326.692 122.382 328.476 123.455 329.242 124.767L330.631 127.15L331.864 124.686C333.326 121.762 333.252 121.697 327.319 120.752C324.361 120.28 322.697 120.442 322.697 121.199ZM148.714 131.676C147.803 133.197 147.994 133.32 149.656 132.274C150.807 131.549 151.323 130.688 150.805 130.36C150.287 130.031 149.347 130.623 148.714 131.676Z" fill="black" fill-opacity="0.841"/>
</svg>