<svg xmlns="http://www.w3.org/2000/svg" width="25" height="25" viewBox="0 0 25 25" fill="none">
  <mask id="mask0_4275_910" style="mask-type:alpha" maskUnits="userSpaceOnUse" x="0" y="0" width="25" height="25">
    <rect x="0.5" y="0.5" width="24" height="24" fill="#D9D9D9"/>
  </mask>
  <g mask="url(#mask0_4275_910)">
    <path d="M12.45 18.5C12.8 18.5 13.0958 18.3792 13.3375 18.1375C13.5792 17.8958 13.7 17.6 13.7 17.25C13.7 16.9 13.5792 16.6042 13.3375 16.3625C13.0958 16.1208 12.8 16 12.45 16C12.1 16 11.8042 16.1208 11.5625 16.3625C11.3208 16.6042 11.2 16.9 11.2 17.25C11.2 17.6 11.3208 17.8958 11.5625 18.1375C11.8042 18.3792 12.1 18.5 12.45 18.5ZM11.55 14.65H13.4C13.4 14.1 13.4625 13.6667 13.5875 13.35C13.7125 13.0333 14.0667 12.6 14.65 12.05C15.0833 11.6167 15.425 11.2042 15.675 10.8125C15.925 10.4208 16.05 9.95 16.05 9.4C16.05 8.46667 15.7083 7.75 15.025 7.25C14.3417 6.75 13.5333 6.5 12.6 6.5C11.65 6.5 10.8792 6.75 10.2875 7.25C9.69583 7.75 9.28333 8.35 9.05 9.05L10.7 9.7C10.7833 9.4 10.9708 9.075 11.2625 8.725C11.5542 8.375 12 8.2 12.6 8.2C13.1333 8.2 13.5333 8.34583 13.8 8.6375C14.0667 8.92917 14.2 9.25 14.2 9.6C14.2 9.93333 14.1 10.2458 13.9 10.5375C13.7 10.8292 13.45 11.1 13.15 11.35C12.4167 12 11.9667 12.4917 11.8 12.825C11.6333 13.1583 11.55 13.7667 11.55 14.65ZM12.5 22.5C11.1167 22.5 9.81667 22.2375 8.6 21.7125C7.38333 21.1875 6.325 20.475 5.425 19.575C4.525 18.675 3.8125 17.6167 3.2875 16.4C2.7625 15.1833 2.5 13.8833 2.5 12.5C2.5 11.1167 2.7625 9.81667 3.2875 8.6C3.8125 7.38333 4.525 6.325 5.425 5.425C6.325 4.525 7.38333 3.8125 8.6 3.2875C9.81667 2.7625 11.1167 2.5 12.5 2.5C13.8833 2.5 15.1833 2.7625 16.4 3.2875C17.6167 3.8125 18.675 4.525 19.575 5.425C20.475 6.325 21.1875 7.38333 21.7125 8.6C22.2375 9.81667 22.5 11.1167 22.5 12.5C22.5 13.8833 22.2375 15.1833 21.7125 16.4C21.1875 17.6167 20.475 18.675 19.575 19.575C18.675 20.475 17.6167 21.1875 16.4 21.7125C15.1833 22.2375 13.8833 22.5 12.5 22.5ZM12.5 20.5C14.7333 20.5 16.625 19.725 18.175 18.175C19.725 16.625 20.5 14.7333 20.5 12.5C20.5 10.2667 19.725 8.375 18.175 6.825C16.625 5.275 14.7333 4.5 12.5 4.5C10.2667 4.5 8.375 5.275 6.825 6.825C5.275 8.375 4.5 10.2667 4.5 12.5C4.5 14.7333 5.275 16.625 6.825 18.175C8.375 19.725 10.2667 20.5 12.5 20.5Z" fill="#1C1B1F"/>
  </g>
</svg>